<mxfile host="app.diagrams.net" modified="2024-01-02T05:25:24.202Z" agent="Mozilla/5.0 (Windows NT 10.0; Win64; x64) AppleWebKit/537.36 (KHTML, like Gecko) Chrome/120.0.0.0 Safari/537.36" version="22.1.16" etag="K5JNspfO50e99AP4thbJ" type="github">
  <diagram name="페이지-1" id="QjowLoqdivDC6Ul63gk1">
    <mxGraphModel>
      <root>
        <mxCell id="0" />
        <mxCell id="1" parent="0" />
      </root>
    </mxGraphModel>
  </diagram>
</mxfile>
